<?xml version="1.0" encoding="utf-8"?>
<svg version="1.1" xmlns:xlink="http://www.w3.org/1999/xlink" width="32px" height="32px" xmlns="http://www.w3.org/2000/svg">
  <defs>
    <mask fill="white" id="clip312">
      <path d="M 0 16  C 0 24.8365559968  7.1634440032 32  16 32  C 24.8365559968 32  32 24.8365559968  32 16  C 32 7.1634440032  24.8365559968 0  16 0  C 7.1634440032 0  0 7.1634440032  0 16  Z " fill-rule="evenodd" />
    </mask>
  </defs>
  <g transform="matrix(1 0 0 1 -1646 -129 )">
    <path d="M 0 16  C 0 24.8365559968  7.1634440032 32  16 32  C 24.8365559968 32  32 24.8365559968  32 16  C 32 7.1634440032  24.8365559968 0  16 0  C 7.1634440032 0  0 7.1634440032  0 16  Z " fill-rule="nonzero" fill="#ffffff" stroke="none" fill-opacity="0" transform="matrix(1 0 0 1 1646 129 )" />
    <path d="M 0 16  C 0 24.8365559968  7.1634440032 32  16 32  C 24.8365559968 32  32 24.8365559968  32 16  C 32 7.1634440032  24.8365559968 0  16 0  C 7.1634440032 0  0 7.1634440032  0 16  Z " stroke-width="4" stroke="#ffffff" fill="none" transform="matrix(1 0 0 1 1646 129 )" mask="url(#clip312)" />
  </g>
</svg>