<?xml version="1.0" encoding="utf-8"?>
<svg version="1.1" xmlns:xlink="http://www.w3.org/1999/xlink" width="15px" height="8px" xmlns="http://www.w3.org/2000/svg">
  <g transform="matrix(1 0 0 1 -9 -14 )">
    <path d="M 8.15743422040923 7.74207870080665  C 7.79407856814221 8.08597376639776  7.20633233994282 8.08597376639776  6.84294732678918 7.74207870080665  C 6.84294732678918 7.74207870080665  0.272538759865229 1.50593092129604  0.272538759865229 1.50593092129604  C -0.0908462532884096 1.16104657043862  -0.0908462532884096 0.603201149021064  0.272538759865229 0.258302864568349  C 0.634866781100835 -0.0856061346180888  1.22365532077493 -0.0865954198843656  1.58704033392857 0.258302864568349  C 1.58704033392857 0.258302864568349  7.50020545404251 5.87062964891746  7.50020545404251 5.87062964891746  C 7.50020545404251 5.87062964891746  13.4133558937131 0.258302864568349  13.4133558937131 0.258302864568349  C 13.7756985953921 -0.0856061346180888  14.3644724546229 -0.0865954198843656  14.7278574677765 0.258302864568349  C 15.0912424809302 0.603187215425765  15.0901854890121 1.16103263684333  14.7278574677765 1.50593092129604  C 14.7278574677765 1.50593092129604  8.15743422040923 7.74207870080665  8.15743422040923 7.74207870080665  Z " fill-rule="nonzero" fill="#182f59" stroke="none" transform="matrix(1 0 0 1 9 14 )" />
  </g>
</svg>