<?xml version="1.0" encoding="utf-8"?>
<svg version="1.1" xmlns:xlink="http://www.w3.org/1999/xlink" width="20px" height="15px" xmlns="http://www.w3.org/2000/svg">
  <g transform="matrix(1 0 0 1 -1293 -1003 )">
    <path d="M 18.125 0  C 19.1587500000001 0  20 0.826491228070154  20 1.84210526315792  C 20 1.84210526315792  20 12.8947368421053  20 12.8947368421053  C 20 13.910350877193  19.1587500000001 14.7368421052632  18.125 14.7368421052632  C 18.125 14.7368421052632  1.875 14.7368421052632  1.875 14.7368421052632  C 0.841249999999945 14.7368421052632  0 13.910350877193  0 12.8947368421053  C 0 12.8947368421053  0 1.84210526315792  0 1.84210526315792  C 0 0.826491228070154  0.841249999999945 0  1.875 0  C 1.875 0  18.125 0  18.125 0  Z M 18.75 12.8947368421056  C 18.75 12.8947368421056  18.75 1.8421052631582  18.75 1.8421052631582  C 18.75 1.50298304834985  18.4701779686443 1.22807017543892  18.125 1.22807017543892  C 18.125 1.22807017543892  1.875 1.22807017543892  1.875 1.22807017543892  C 1.52982203135571 1.22807017543892  1.25 1.50298304834985  1.25 1.8421052631582  C 1.25 1.8421052631582  1.25 12.8947368421056  1.25 12.8947368421056  C 1.25 13.233859056914  1.52982203135571 13.5087719298249  1.875 13.5087719298249  C 1.875 13.5087719298249  18.125 13.5087719298249  18.125 13.5087719298249  C 18.46875 13.5087719298249  18.75 13.2324561403512  18.75 12.8947368421056  Z M 16.5962500000001 4.04157894736875  C 16.5962500000001 4.04157894736875  10.3462500000001 8.13473684210555  10.3462500000001 8.13473684210555  C 10.2440403404403 8.2025942266435  10.1233568579569 8.23854932839805  10 8.23789473684241  C 9.87673301419363 8.23794785403771  9.75622496210417 8.2020450180741  9.65374999999995 8.13473684210555  C 9.65374999999995 8.13473684210555  3.40374999999995 4.04157894736875  3.40374999999995 4.04157894736875  C 3.2106342148154 3.92312610972886  3.09835327176734 3.71087733248129  3.11065751206661 3.48753548731759  C 3.12296175236634 3.26419364215388  3.25790466218177 3.06509110069703  3.46290565046866 2.96780829546179  C 3.66790663875554 2.8705254902265  3.91053483213273 2.89045242672017  4.09625000000005 3.01982456140382  C 4.09625000000005 3.01982456140382  10 6.8857894736845  10 6.8857894736845  C 10 6.8857894736845  15.9037499999999 3.01982456140382  15.9037499999999 3.01982456140382  C 16.1904942179012 2.84394216911369  16.5676126455 2.92392557000528  16.7549677894235 3.20036014045519  C 16.9423229333465 3.4767947109051  16.8720055552053 3.84948324922243  16.5962500000001 4.04157894736875  Z " fill-rule="nonzero" fill="#182f58" stroke="none" transform="matrix(1 0 0 1 1293 1003 )" />
  </g>
</svg>