<?xml version="1.0" encoding="utf-8"?>
<svg version="1.1" xmlns:xlink="http://www.w3.org/1999/xlink" width="16px" height="21px" xmlns="http://www.w3.org/2000/svg">
  <g transform="matrix(1 0 0 1 -1294 -1040 )">
    <path d="M 2.89090656520602 1.02160869069507  C 2.89090656520602 1.02160869069507  2.78134158259763 1.1026691263063  2.78173141196203 1.10264561007898  C -0.352267368513822 3.50068937596927  -0.740491553437096 8.76228062777466  2.04715530210797 14.0660599914124  C 4.77139755804819 19.2482134272924  9.08848259798879 22.0014462907959  13.5523039970158 20.5879093821338  C 14.7126884287741 20.220679976127  15.8260869565215 19.2036736927267  15.8260869565215 18.0582452918698  C 15.8264767858859 16.0671733561763  13.6047475121322 12.1022903956507  11.9406806100938 11.794462979883  C 11.4738026180657 11.7085817176687  10.9094672848723 11.8811673100538  10.0700041447858 12.2527942505716  C 9.98043358104223 12.2925416236396  9.89119758336255 12.333077256095  9.80230602695974 12.3743966621022  C 9.80230602695974 12.3743966621022  9.59333455636306 12.4731413006666  9.59333455636306 12.4731413006666  C 9.38901810700281 12.5706630954098  9.21724094402225 12.6561445817595  8.92528168103081 12.8042497814924  C 8.92528168103081 12.8042497814924  8.79964196991477 12.8676495303779  8.79964196991477 12.8676495303779  C 8.7468164627162 12.8151416056695  8.69016003059096 12.7548976330812  8.64153176583659 12.6982856611373  C 8.40084652986752 12.4197594646245  8.11711954581233 12.0095894275105  7.83103065443038 11.5271775400345  C 7.83103065443038 11.5271775400345  7.7480657931751 11.3850924944983  7.7480657931751 11.3850924944983  C 7.3637399018985 10.7188777742002  7.02250162098608 10.0020561326851  6.80059698793821 9.40486153960467  C 6.80059698793821 9.40486153960467  7.31014982982697 9.1146948105627  7.31014982982697 9.1146948105627  C 7.41971481243581 9.06653357698804  7.52421201330344 9.01877211927797  7.63379992705131 8.96861200638011  C 7.63379992705131 8.96861200638011  7.94295754436598 8.82532763325003  7.94295754436598 8.82532763325003  C 7.94295754436598 8.82532763325003  8.18091397478202 8.71174425523952  8.18091397478202 8.71174425523952  C 8.78361310368564 8.41915535478245  9.1413159424701 8.20725063029931  9.34246789463441 7.98290582155801  C 10.4918912419043 6.69981342590313  8.21340739888365 0.50387542976739  6.3438774905303 0.146663936603659  C 5.23164845087695 -0.0660403396086622  3.88772318178098 0.304410789542544  2.89090656520602 1.02160869069507  Z M 3.71787223448518 2.3893595047432  C 4.39257514015571 1.87282557140941  5.36196611436981 1.59187720348143  6.05700894041956 1.72474388790374  C 6.29572209842581 1.77050646629061  6.9915675143443 2.87259446017583  7.51405351868425 4.29335085062849  C 7.77507867503255 5.00252971826103  7.97272216291549 5.71812851595496  8.06508879120065 6.28282368286341  C 8.06508879120065 6.28282368286341  8.08072782806539 6.38074525347133  8.08072782806539 6.38074525347133  C 8.10578991583543 6.54004234566673  8.11939419828786 6.70101394397648  8.12143059996379 6.86235758921794  L 8.02046479451656 6.99440120568374  C 7.84749521230287 7.09072367283306  7.5645249558379 7.23680647701553  7.28861749021507 7.36685121415815  C 7.28861749021507 7.36685121415815  6.83464972949878 7.57593399136147  6.83464972949878 7.57593399136147  C 6.66151034411769 7.65403358307765  6.48787200423885 7.73096466492382  6.3137459737568 7.80672224639159  C 6.3137459737568 7.80672224639159  5.59363941267338 8.12096959222083  5.59363941267338 8.12096959222083  L 5.48641340625272 8.17232903271258  C 5.4433716581666 8.14222826172841  5.34983554178689 8.24859215794822  5.06335682104009 9.08299493612037  C 5.53885692136873 11.171588666557  7.54771643087952 14.5609354793744  8.78125119635934 14.5629343586976  C 8.78125119635934 14.5629343586976  8.93351395996797 14.5456734478363  8.93351395996797 14.5456734478363  C 8.93351395996797 14.5456734478363  9.10531405408756 14.4951135590738  9.10531405408756 14.4951135590738  L 9.19492894568111 14.4553711348838  L 9.51779938417576 14.2948258508925  C 9.51779938417576 14.2948258508925  10.0668625787303 14.0191216016593  10.0668625787303 14.0191216016593  C 10.1511258736505 13.9777141098791  10.2356673608783 13.9369046411068  10.3204809771501 13.8966961221722  C 10.3204809771501 13.8966961221722  10.5709348783748 13.7803143131092  10.5709348783748 13.7803143131092  C 10.5709348783748 13.7803143131092  10.6907042178818 13.7265327012022  10.6907042178818 13.7265327012022  C 10.9295082721064 13.6176680955238  11.1740961742926 13.5226691711866  11.4233082497735 13.4419863504926  C 11.4233082497735 13.4419863504926  11.5105841651789 13.417106181976  11.5105841651789 13.417106181976  C 11.6162508541411 13.3881812223584  11.6788757950167 13.3773637577859  11.6632138270129 13.3745418105062  C 12.4459453289724 13.5190490274575  14.2610596442469 16.757891985354  14.260669814882 18.0582452918701  C 14.260669814882 18.3311511100508  13.6704910879257 18.8705663325781  13.090493786729 19.0543926816274  C 9.46652535715339 20.2017729293528  5.83315516054836 17.8848131153012  3.42513331276496 13.3038990636027  C 0.96975866274488 8.6334587344536  1.29418841869847 4.24396677323261  3.71787223448518 2.3893595047432  Z " fill-rule="nonzero" fill="#182f59" stroke="none" transform="matrix(1 0 0 1 1294 1040 )" />
  </g>
</svg>