<?xml version="1.0" encoding="utf-8"?>
<svg version="1.1" xmlns:xlink="http://www.w3.org/1999/xlink" width="15px" height="8px" xmlns="http://www.w3.org/2000/svg">
  <g transform="matrix(1 0 0 1 -9 -11 )">
    <path d="M 6.65473064054504 0.257921299193185  C 7.0081118239259 -0.0859737663977285  7.57972384193999 -0.0859737663977285  7.9331335802226 0.257921299193185  C 7.9331335802226 0.257921299193185  14.3231779904072 6.49406907870389  14.3231779904072 6.49406907870389  C 14.6765877286898 6.83895342956112  14.6765877286898 7.39679885097894  14.3231779904072 7.74169713543142  C 13.9707962285784 8.08560613461805  13.3981705115621 8.08659541988436  13.044760773279 7.74169713543142  C 13.044760773279 7.74169713543142  7.29391783293295 2.1293703510828  7.29391783293295 2.1293703510828  C 7.29391783293295 2.1293703510828  1.54308917003755 7.74169713543142  1.54308917003755 7.74169713543142  C 1.19069313075761 8.08560613461805  0.618081691191946 8.08659541988436  0.264671952909339 7.74169713543142  C -0.0887377853732687 7.39681278457419  -0.0877098089194988 6.83896736315637  0.264671952909339 6.49406907870389  C 0.264671952909339 6.49406907870389  6.65473064054504 0.257921299193185  6.65473064054504 0.257921299193185  Z " fill-rule="nonzero" fill="#182f59" stroke="none" transform="matrix(1 0 0 1 9 11 )" />
  </g>
</svg>