<?xml version="1.0" encoding="utf-8"?>
<svg version="1.1" xmlns:xlink="http://www.w3.org/1999/xlink" width="1736px" height="106px" xmlns="http://www.w3.org/2000/svg">
  <defs>
    <filter x="-8px" y="-8px" width="1736px" height="106px" filterUnits="userSpaceOnUse" id="filter310">
      <feOffset dx="0" dy="0" in="SourceAlpha" result="shadowOffsetInner" />
      <feGaussianBlur stdDeviation="4" in="shadowOffsetInner" result="shadowGaussian" />
      <feComposite in2="shadowGaussian" operator="atop" in="SourceAlpha" result="shadowComposite" />
      <feColorMatrix type="matrix" values="0 0 0 0 0.870588235294118  0 0 0 0 0.913725490196078  0 0 0 0 1  0 0 0 1 0  " in="shadowComposite" />
    </filter>
    <g id="widget311">
      <path d="M 1.5 12  A 10.5 10.5 0 0 1 12 1.5 L 1708 1.5  A 10.5 10.5 0 0 1 1718.5 12 L 1718.5 78  A 10.5 10.5 0 0 1 1708 88.5 L 12 88.5  A 10.5 10.5 0 0 1 1.5 78 L 1.5 12  Z " fill-rule="nonzero" fill="#ffffff" stroke="none" fill-opacity="0" />
      <path d="M 1 12  A 11 11 0 0 1 12 1 L 1708 1  A 11 11 0 0 1 1719 12 L 1719 78  A 11 11 0 0 1 1708 89 L 12 89  A 11 11 0 0 1 1 78 L 1 12  Z " stroke-width="2" stroke="#182f58" fill="none" />
    </g>
  </defs>
  <g transform="matrix(1 0 0 1 8 8 )">
    <use xlink:href="#widget311" filter="url(#filter310)" />
    <use xlink:href="#widget311" />
  </g>
</svg>